{
	"asset":{
		"generator":"Khronos glTF Blender I/O v3.6.28",
		"version":"2.0"
	},
	"scene":0,
	"scenes":[
		{
			"name":"Scene",
			"nodes":[
				0
			]
		}
	],
	"nodes":[
		{
			"mesh":0,
			"name":"Object_2",
			"scale":[
				0.23999999463558197,
				0.23999999463558197,
				0.23999999463558197
			]
		}
	],
	"materials":[
		{
			"doubleSided":true,
			"name":"FrontColor",
			"pbrMetallicRoughness":{
				"baseColorTexture":{
					"index":0
				},
				"metallicFactor":0,
				"roughnessFactor":0.6000000238418579
			}
		}
	],
	"meshes":[
		{
			"name":"Object_0",
			"primitives":[
				{
					"attributes":{
						"POSITION":0,
						"NORMAL":1,
						"TEXCOORD_0":2
					},
					"indices":3,
					"material":0
				}
			]
		}
	],
	"textures":[
		{
			"sampler":0,
			"source":0
		}
	],
	"images":[
		{
			"mimeType":"image/png",
			"name":"icosa",
			"uri":"texturasIcosaedro/icosa.png"
		}
	],
	"accessors":[
		{
			"bufferView":0,
			"componentType":5126,
			"count":60,
			"max":[
				0.8126383423805237,
				0.8124240636825562,
				0.8167704939842224
			],
			"min":[
				-0.805393636226654,
				-0.8056559562683105,
				-0.8012644648551941
			],
			"type":"VEC3"
		},
		{
			"bufferView":1,
			"componentType":5126,
			"count":60,
			"type":"VEC3"
		},
		{
			"bufferView":2,
			"componentType":5126,
			"count":60,
			"type":"VEC2"
		},
		{
			"bufferView":3,
			"componentType":5123,
			"count":60,
			"type":"SCALAR"
		}
	],
	"bufferViews":[
		{
			"buffer":0,
			"byteLength":720,
			"byteOffset":0,
			"target":34962
		},
		{
			"buffer":0,
			"byteLength":720,
			"byteOffset":720,
			"target":34962
		},
		{
			"buffer":0,
			"byteLength":480,
			"byteOffset":1440,
			"target":34962
		},
		{
			"buffer":0,
			"byteLength":120,
			"byteOffset":1920,
			"target":34963
		}
	],
	"samplers":[
		{
			"magFilter":9729,
			"minFilter":9987
		}
	],
	"buffers":[
		{
			"byteLength":2040,
			"uri":"ico.bin"
		}
	]
}
