{
	"asset":{
		"generator":"Khronos glTF Blender I/O v3.6.28",
		"version":"2.0"
	},
	"scene":0,
	"scenes":[
		{
			"name":"Scene",
			"nodes":[
				0
			]
		}
	],
	"nodes":[
		{
			"mesh":0,
			"name":"Cilindro.003",
			"scale":[
				0.1022145077586174,
				0.1022145077586174,
				0.1022145077586174
			]
		}
	],
	"materials":[
		{
			"doubleSided":true,
			"name":"Material.006",
			"normalTexture":{
				"index":0
			},
			"pbrMetallicRoughness":{
				"baseColorTexture":{
					"index":1
				},
				"metallicFactor":0,
				"metallicRoughnessTexture":{
					"index":2
				}
			}
		},
		{
			"doubleSided":true,
			"name":"Material.008",
			"normalTexture":{
				"index":3
			},
			"pbrMetallicRoughness":{
				"baseColorTexture":{
					"index":4
				},
				"metallicFactor":0,
				"metallicRoughnessTexture":{
					"index":5
				}
			}
		}
	],
	"meshes":[
		{
			"name":"Cilindro.003",
			"primitives":[
				{
					"attributes":{
						"POSITION":0,
						"NORMAL":1,
						"TEXCOORD_0":2,
						"TEXCOORD_1":3
					},
					"indices":4,
					"material":0
				},
				{
					"attributes":{
						"POSITION":5,
						"NORMAL":6,
						"TEXCOORD_0":7,
						"TEXCOORD_1":8
					},
					"indices":9,
					"material":1
				}
			]
		}
	],
	"textures":[
		{
			"sampler":0,
			"source":0
		},
		{
			"sampler":0,
			"source":1
		},
		{
			"sampler":0,
			"source":2
		},
		{
			"sampler":0,
			"source":3
		},
		{
			"sampler":0,
			"source":4
		},
		{
			"sampler":0,
			"source":5
		}
	],
	"images":[
		{
			"mimeType":"image/png",
			"name":"concrete_floor_worn_001_nor_gl_1k",
			"uri":"textures_peso/concrete_floor_worn_001_nor_gl_1k.png"
		},
		{
			"mimeType":"image/png",
			"name":"concrete_floor_worn_001_diff_1k",
			"uri":"textures_peso/concrete_floor_worn_001_diff_1k.png"
		},
		{
			"mimeType":"image/png",
			"name":"concrete_floor_worn_001_rough_1k",
			"uri":"textures_peso/concrete_floor_worn_001_rough_1k.png"
		},
		{
			"mimeType":"image/png",
			"name":"rubber_tiles_nor_gl_1k",
			"uri":"textures_peso/rubber_tiles_nor_gl_1k.png"
		},
		{
			"mimeType":"image/png",
			"name":"rubber_tiles_diff_1k",
			"uri":"textures_peso/rubber_tiles_diff_1k.png"
		},
		{
			"mimeType":"image/png",
			"name":"rubber_tiles_rough_1k",
			"uri":"textures_peso/rubber_tiles_rough_1k.png"
		}
	],
	"accessors":[
		{
			"bufferView":0,
			"componentType":5126,
			"count":419,
			"max":[
				1,
				-0.7660242319107056,
				1
			],
			"min":[
				-1,
				-2.956669330596924,
				-1
			],
			"type":"VEC3"
		},
		{
			"bufferView":1,
			"componentType":5126,
			"count":419,
			"type":"VEC3"
		},
		{
			"bufferView":2,
			"componentType":5126,
			"count":419,
			"type":"VEC2"
		},
		{
			"bufferView":3,
			"componentType":5126,
			"count":419,
			"type":"VEC2"
		},
		{
			"bufferView":4,
			"componentType":5123,
			"count":948,
			"type":"SCALAR"
		},
		{
			"bufferView":5,
			"componentType":5126,
			"count":1920,
			"max":[
				0.3738967180252075,
				0.3783121109008789,
				0.1589108556509018
			],
			"min":[
				-0.4681200087070465,
				-0.8864325284957886,
				-0.1589108556509018
			],
			"type":"VEC3"
		},
		{
			"bufferView":6,
			"componentType":5126,
			"count":1920,
			"type":"VEC3"
		},
		{
			"bufferView":7,
			"componentType":5126,
			"count":1920,
			"type":"VEC2"
		},
		{
			"bufferView":8,
			"componentType":5126,
			"count":1920,
			"type":"VEC2"
		},
		{
			"bufferView":9,
			"componentType":5123,
			"count":2964,
			"type":"SCALAR"
		}
	],
	"bufferViews":[
		{
			"buffer":0,
			"byteLength":5028,
			"byteOffset":0,
			"target":34962
		},
		{
			"buffer":0,
			"byteLength":5028,
			"byteOffset":5028,
			"target":34962
		},
		{
			"buffer":0,
			"byteLength":3352,
			"byteOffset":10056,
			"target":34962
		},
		{
			"buffer":0,
			"byteLength":3352,
			"byteOffset":13408,
			"target":34962
		},
		{
			"buffer":0,
			"byteLength":1896,
			"byteOffset":16760,
			"target":34963
		},
		{
			"buffer":0,
			"byteLength":23040,
			"byteOffset":18656,
			"target":34962
		},
		{
			"buffer":0,
			"byteLength":23040,
			"byteOffset":41696,
			"target":34962
		},
		{
			"buffer":0,
			"byteLength":15360,
			"byteOffset":64736,
			"target":34962
		},
		{
			"buffer":0,
			"byteLength":15360,
			"byteOffset":80096,
			"target":34962
		},
		{
			"buffer":0,
			"byteLength":5928,
			"byteOffset":95456,
			"target":34963
		}
	],
	"samplers":[
		{
			"magFilter":9729,
			"minFilter":9987
		}
	],
	"buffers":[
		{
			"byteLength":101384,
			"uri":"peso.bin"
		}
	]
}
