{
	"asset":{
		"generator":"Khronos glTF Blender I/O v3.6.28",
		"version":"2.0"
	},
	"scene":0,
	"scenes":[
		{
			"name":"Scene",
			"nodes":[
				0,
				1
			]
		}
	],
	"nodes":[
		{
			"mesh":0,
			"name":"Sphere",
			"scale":[
				-0.06613418459892273,
				-0.06613418459892273,
				-0.06613418459892273
			],
			"translation":[
				0,
				-0.0007017850875854492,
				-0.6396390795707703
			]
		},
		{
			"mesh":1,
			"name":"Cube",
			"scale":[
				-0.03999999910593033,
				-0.3999999761581421,
				-0.3999999761581421
			]
		}
	],
	"materials":[
		{
			"doubleSided":true,
			"name":"Doorhandle",
			"pbrMetallicRoughness":{
				"baseColorTexture":{
					"index":0
				},
				"metallicFactor":0,
				"roughnessFactor":0
			}
		},
		{
			"doubleSided":true,
			"name":"Door",
			"pbrMetallicRoughness":{
				"baseColorTexture":{
					"index":1
				},
				"metallicFactor":0,
				"roughnessFactor":0
			}
		}
	],
	"meshes":[
		{
			"name":"Sphere",
			"primitives":[
				{
					"attributes":{
						"POSITION":0,
						"NORMAL":1
					},
					"indices":2,
					"material":0
				}
			]
		},
		{
			"name":"Cube.001",
			"primitives":[
				{
					"attributes":{
						"POSITION":3,
						"NORMAL":4,
						"TEXCOORD_0":5,
						"TEXCOORD_1":6
					},
					"indices":7,
					"material":1
				}
			]
		}
	],
	"textures":[
		{
			"sampler":0,
			"source":0
		},
		{
			"sampler":0,
			"source":1
		}
	],
	"images":[
		{
			"mimeType":"image/png",
			"name":"LockerTexture",
			"uri":"texturasPuerta/LockerTexture.png"
		},
		{
			"mimeType":"image/jpeg",
			"name":"WoodTexture",
			"uri":"texturasPuerta/WoodTexture.jpg"
		}
	],
	"accessors":[
		{
			"bufferView":0,
			"componentType":5126,
			"count":4256,
			"max":[
				1.9910409450531006,
				1.0700454711914062,
				1.0713781118392944
			],
			"min":[
				-1.9910403490066528,
				-1.0721163749694824,
				-1.070784091949463
			],
			"type":"VEC3"
		},
		{
			"bufferView":1,
			"componentType":5126,
			"count":4256,
			"type":"VEC3"
		},
		{
			"bufferView":2,
			"componentType":5123,
			"count":6414,
			"type":"SCALAR"
		},
		{
			"bufferView":3,
			"componentType":5126,
			"count":2792,
			"max":[
				1.0482447147369385,
				3.7696499824523926,
				2.028292179107666
			],
			"min":[
				-0.9517554044723511,
				-4.039950370788574,
				-2.0282206535339355
			],
			"type":"VEC3"
		},
		{
			"bufferView":4,
			"componentType":5126,
			"count":2792,
			"type":"VEC3"
		},
		{
			"bufferView":5,
			"componentType":5126,
			"count":2792,
			"type":"VEC2"
		},
		{
			"bufferView":6,
			"componentType":5126,
			"count":2792,
			"type":"VEC2"
		},
		{
			"bufferView":7,
			"componentType":5123,
			"count":4500,
			"type":"SCALAR"
		}
	],
	"bufferViews":[
		{
			"buffer":0,
			"byteLength":51072,
			"byteOffset":0,
			"target":34962
		},
		{
			"buffer":0,
			"byteLength":51072,
			"byteOffset":51072,
			"target":34962
		},
		{
			"buffer":0,
			"byteLength":12828,
			"byteOffset":102144,
			"target":34963
		},
		{
			"buffer":0,
			"byteLength":33504,
			"byteOffset":114972,
			"target":34962
		},
		{
			"buffer":0,
			"byteLength":33504,
			"byteOffset":148476,
			"target":34962
		},
		{
			"buffer":0,
			"byteLength":22336,
			"byteOffset":181980,
			"target":34962
		},
		{
			"buffer":0,
			"byteLength":22336,
			"byteOffset":204316,
			"target":34962
		},
		{
			"buffer":0,
			"byteLength":9000,
			"byteOffset":226652,
			"target":34963
		}
	],
	"samplers":[
		{
			"magFilter":9729,
			"minFilter":9987
		}
	],
	"buffers":[
		{
			"byteLength":235652,
			"uri":"puerta.bin"
		}
	]
}
