{
	"asset":{
		"generator":"Khronos glTF Blender I/O v3.6.28",
		"version":"2.0"
	},
	"scene":0,
	"scenes":[
		{
			"name":"Scene",
			"nodes":[
				0
			]
		}
	],
	"nodes":[
		{
			"mesh":0,
			"name":"Circle",
			"rotation":[
				0,
				0,
				-0.7071068286895752,
				0.7071068286895752
			],
			"scale":[
				0.004999999888241291,
				0.004999999888241291,
				0.004999999888241291
			]
		}
	],
	"materials":[
		{
			"doubleSided":true,
			"name":"Material.003",
			"normalTexture":{
				"index":0
			},
			"pbrMetallicRoughness":{
				"baseColorTexture":{
					"index":1
				},
				"metallicFactor":0,
				"metallicRoughnessTexture":{
					"index":2
				}
			}
		}
	],
	"meshes":[
		{
			"name":"Circle",
			"primitives":[
				{
					"attributes":{
						"POSITION":0,
						"NORMAL":1,
						"TEXCOORD_0":2
					},
					"indices":3,
					"material":0
				}
			]
		}
	],
	"textures":[
		{
			"sampler":0,
			"source":0
		},
		{
			"sampler":0,
			"source":1
		},
		{
			"sampler":0,
			"source":2
		}
	],
	"images":[
		{
			"mimeType":"image/png",
			"name":"Metal032_1K-PNG_NormalGL",
			"uri":"textures_resorte/Metal032_1K-PNG_NormalGL.png"
		},
		{
			"mimeType":"image/png",
			"name":"Metal032_1K-PNG_Color",
			"uri":"textures_resorte/Metal032_1K-PNG_Color.png"
		},
		{
			"mimeType":"image/png",
			"name":"Metal032_1K-PNG_Roughness",
			"uri":"textures_resorte/Metal032_1K-PNG_Roughness.png"
		}
	],
	"accessors":[
		{
			"bufferView":0,
			"componentType":5126,
			"count":13952,
			"max":[
				200.49998474121094,
				10.99973201751709,
				10.999999046325684
			],
			"min":[
				-1,
				-10.999998092651367,
				-10.999998092651367
			],
			"type":"VEC3"
		},
		{
			"bufferView":1,
			"componentType":5126,
			"count":13952,
			"type":"VEC3"
		},
		{
			"bufferView":2,
			"componentType":5126,
			"count":13952,
			"type":"VEC2"
		},
		{
			"bufferView":3,
			"componentType":5123,
			"count":83520,
			"type":"SCALAR"
		}
	],
	"bufferViews":[
		{
			"buffer":0,
			"byteLength":167424,
			"byteOffset":0,
			"target":34962
		},
		{
			"buffer":0,
			"byteLength":167424,
			"byteOffset":167424,
			"target":34962
		},
		{
			"buffer":0,
			"byteLength":111616,
			"byteOffset":334848,
			"target":34962
		},
		{
			"buffer":0,
			"byteLength":167040,
			"byteOffset":446464,
			"target":34963
		}
	],
	"samplers":[
		{
			"magFilter":9729,
			"minFilter":9987
		}
	],
	"buffers":[
		{
			"byteLength":613504,
			"uri":"resorte.bin"
		}
	]
}
