{
	"asset":{
		"generator":"Khronos glTF Blender I/O v3.6.28",
		"version":"2.0"
	},
	"scene":0,
	"scenes":[
		{
			"name":"Scene",
			"nodes":[
				0
			]
		}
	],
	"nodes":[
		{
			"mesh":0,
			"name":"Earth",
			"rotation":[
				0,
				0.7071066498756409,
				-0.70710688829422,
				5.3385061704602776e-08
			],
			"scale":[
				0.07999999821186066,
				0.07999999821186066,
				0.07999999821186066
			]
		}
	],
	"materials":[
		{
			"doubleSided":true,
			"name":"Earth_MATERIAL",
			"pbrMetallicRoughness":{
				"baseColorTexture":{
					"index":0
				},
				"metallicFactor":0,
				"roughnessFactor":0.5
			}
		}
	],
	"meshes":[
		{
			"name":"Earth",
			"primitives":[
				{
					"attributes":{
						"POSITION":0,
						"NORMAL":1,
						"TEXCOORD_0":2
					},
					"indices":3,
					"material":0
				}
			]
		}
	],
	"textures":[
		{
			"sampler":0,
			"source":0
		}
	],
	"images":[
		{
			"mimeType":"image/png",
			"name":"Earth_TEXTURE_CM",
			"uri":"texturasTierra/Earth_TEXTURE_CM.png"
		}
	],
	"accessors":[
		{
			"bufferView":0,
			"componentType":5126,
			"count":1977,
			"max":[
				2.4578800201416016,
				2.4578299522399902,
				2.4872782230377197
			],
			"min":[
				-2.4578800201416016,
				-2.4578299522399902,
				-2.487278461456299
			],
			"type":"VEC3"
		},
		{
			"bufferView":1,
			"componentType":5126,
			"count":1977,
			"type":"VEC3"
		},
		{
			"bufferView":2,
			"componentType":5126,
			"count":1977,
			"type":"VEC2"
		},
		{
			"bufferView":3,
			"componentType":5123,
			"count":11088,
			"type":"SCALAR"
		}
	],
	"bufferViews":[
		{
			"buffer":0,
			"byteLength":23724,
			"byteOffset":0,
			"target":34962
		},
		{
			"buffer":0,
			"byteLength":23724,
			"byteOffset":23724,
			"target":34962
		},
		{
			"buffer":0,
			"byteLength":15816,
			"byteOffset":47448,
			"target":34962
		},
		{
			"buffer":0,
			"byteLength":22176,
			"byteOffset":63264,
			"target":34963
		}
	],
	"samplers":[
		{
			"magFilter":9729,
			"minFilter":9987
		}
	],
	"buffers":[
		{
			"byteLength":85440,
			"uri":"tierra.bin"
		}
	]
}
